<svg width="595" height="391" viewBox="0 0 595 391" fill="none" xmlns="http://www.w3.org/2000/svg">
<ellipse cx="116" cy="255.5" rx="43" ry="45.5" fill="#E2E2E2"/>
<path d="M484.979 257.495C509.146 268.662 554.379 297.195 541.979 321.995C526.479 352.995 484.979 344.995 484.979 358.995C484.979 372.995 485.979 393.495 508.479 389.995C530.979 386.495 561.479 331.495 590.979 349.495C620.479 367.495 600.979 389.995 636.979 389.995C672.979 389.995 702.979 366.495 688.479 349.495C673.979 332.495 616.979 329.495 603.979 293.495C590.979 257.495 594.479 216.995 551.479 226.495C508.479 235.995 495.979 193.495 472.979 206.495C453.798 217.336 460.979 238.495 484.979 257.495Z" fill="#E2E2E2"/>
<path d="M351 257.5C367.4 277.9 334.5 307.5 340 332.5C348 342.5 368.2 362.3 385 361.5C406 360.5 390.5 332.5 385 307.5C379.5 282.5 419 286 433.5 257.5C448 229 388.5 221.5 364 215.5C339.5 209.5 330.5 232 351 257.5Z" fill="#E2E2E2"/>
<path d="M42 0.5C54.1667 24.1667 74 76 56 94C33.5 116.5 -4.00001 137.5 8.99999 174C22 210.5 32 222 29.5 241C27.5 256.2 -6.33333 273.667 -23 280.5L-46 164.5L-53.5 65L-23 8L51 -37L42 0.5Z" fill="#E2E2E2"/>
<ellipse cx="54" cy="159" rx="23" ry="25" fill="#E2E2E2"/>
<path d="M160 169.337C203.333 148.67 285.2 124.237 266 191.837C242 276.337 169 247.337 202 297.837C235 348.337 303 340.337 252.5 378.837C212.1 409.637 148 361.337 121 333.337L160 169.337Z" fill="#E2E2E2"/>
<path d="M365 -6C366 37.8333 374.9 127.5 402.5 135.5C437 145.5 474.5 101.5 518.5 118.5C553.7 132.1 583.5 180.5 594 203L631 218L623.5 147.5V57.5L603.5 -20H464L370.5 -6H365Z" fill="#E2E2E2"/>
<ellipse cx="308" cy="107" rx="35" ry="34" fill="#E2E2E2"/>
<ellipse cx="206" cy="20" rx="55" ry="49" fill="#E2E2E2"/>
<ellipse cx="290.5" cy="288" rx="35.5" ry="33" fill="#E2E2E2"/>
</svg>
